Coordinates
version=1
nRows=26
nColumns=22
inDegrees=yes

Units are S.I. units (second, meters, Newtons, ...)
If the header above contains a line with 'inDegrees', this indicates whether rotational values are in degrees (yes) or radians (no).

endheader
time	pelvis_tilt	pelvis_list	pelvis_rotation	pelvis_tx	pelvis_ty	pelvis_tz	hip_flexion_r	hip_adduction_r	hip_rotation_r	knee_angle_r	ankle_angle_r	subtalar_angle_r	hip_flexion_l	hip_adduction_l	hip_rotation_l	knee_angle_l	ankle_angle_l	subtalar_angle_l	lumbar_extension	lumbar_bending	lumbar_rotation
      0.01000000	     -0.49418757	     -2.45605126	     -5.97264372	     -1.10664243	      0.93655013	     -0.06650106	     -0.84230465	      2.93405765	      2.08141381	     -4.06922377	      3.55032070	      1.04134608	     -1.07724257	     -6.62718420	    -12.12627342	     -6.53325746	      6.15494096	      8.04973765	     -3.41904062	     -0.03531035	     -1.72193543
      0.02000000	     -0.48506396	     -2.46020967	     -5.95442925	     -1.10652526	      0.93657080	     -0.06678904	     -0.85370076	      2.91978485	      2.08506233	     -4.08057758	      3.54937655	      1.04082683	     -1.08240535	     -6.61288826	    -12.12321045	     -6.54343431	      6.15366765	      8.04972794	     -3.40016140	     -0.01352858	     -1.71844906
      0.03000000	     -0.44700437	     -2.45202633	     -5.85550919	     -1.10640664	      0.93662475	     -0.06726132	     -0.90846092	      2.88455217	      1.99730846	     -4.06968184	      3.57770653	      1.04043871	     -1.07947459	     -6.57941315	    -12.01221527	     -6.59308370	      6.14797658	      8.02474052	     -3.41699549	     -0.00253595	     -1.81155484
      0.04000000	     -0.42039852	     -2.45378904	     -5.80925134	     -1.10629059	      0.93666740	     -0.06768538	     -0.93428298	      2.86072099	      1.97504067	     -4.09016062	      3.58676963	      1.04052256	     -1.07975904	     -6.55539724	    -11.95445349	     -6.63609161	      6.13671320	      8.00834744	     -3.41683378	      0.01822820	     -1.81119671
      0.05000000	     -0.38446501	     -2.44605774	     -5.72676695	     -1.10615433	      0.93671592	     -0.06820210	     -0.97803515	      2.82296280	      1.90477313	     -4.09674494	      3.62024188	      1.04050280	     -1.07822143	     -6.51670362	    -11.86522401	     -6.68591499	      6.13112104	      7.96865308	     -3.42366567	      0.03328633	     -1.87542276
      0.06000000	     -0.35197226	     -2.44506580	     -5.66068292	     -1.10600743	      0.93675808	     -0.06870141	     -1.01241578	      2.79381165	      1.83242452	     -4.11564211	      3.63971388	      1.03766118	     -1.08504466	     -6.48311219	    -11.78051865	     -6.72137411	      6.12982517	      7.91939976	     -3.42335201	      0.05472043	     -1.90274943
      0.07000000	     -0.33857055	     -2.45136417	     -5.64044006	     -1.10584559	      0.93677579	     -0.06912955	     -1.02768019	      2.77470660	      1.83562691	     -4.13189437	      3.63936724	      1.03681058	     -1.09332684	     -6.45858128	    -11.77657126	     -6.73543132	      6.12853045	      7.91689160	     -3.39513195	      0.08753608	     -1.89897233
      0.08000000	     -0.29033290	     -2.43763273	     -5.54769400	     -1.10571078	      0.93682709	     -0.06966830	     -1.08193712	      2.73103381	      1.70639577	     -4.14242944	      3.68777119	      1.02274864	     -1.10058839	     -6.40984726	    -11.64843985	     -6.78989975	      6.13695533	      7.79501019	     -3.41478005	      0.09382224	     -1.97842208
      0.09000000	     -0.27726969	     -2.44326159	     -5.53234416	     -1.10556708	      0.93683756	     -0.07005911	     -1.09671567	      2.71388825	      1.71029821	     -4.15697044	      3.68656685	      1.02188287	     -1.10762506	     -6.38716594	    -11.64365024	     -6.80626753	      6.13562504	      7.79293209	     -3.38852312	      0.12233085	     -1.96934475
      0.10000000	     -0.25067924	     -2.43520144	     -5.50901038	     -1.10546753	      0.93685873	     -0.07044549	     -1.12739947	      2.68173933	      1.68777223	     -4.15951855	      3.69448914	      1.01848632	     -1.10333699	     -6.35311219	    -11.60023651	     -6.86713585	      6.14143989	      7.76619730	     -3.38563491	      0.12779217	     -1.93646357
      0.11000000	     -0.23863204	     -2.43935966	     -5.50409410	     -1.10533363	      0.93686327	     -0.07078868	     -1.14218938	      2.66443406	      1.68690310	     -4.17013627	      3.69396004	      1.01780996	     -1.11256611	     -6.33205327	    -11.59563814	     -6.88258378	      6.14210819	      7.76277207	     -3.35860932	      0.15350978	     -1.93332193
      0.12000000	     -0.19731723	     -2.40868997	     -5.47170393	     -1.10519864	      0.93690008	     -0.07118282	     -1.19838977	      2.60463704	      1.62075932	     -4.15365117	      3.70394562	      1.02085272	     -1.13128196	     -6.27006431	    -11.55699067	     -6.92578992	      6.18521092	      7.65723447	     -3.36558499	      0.13568733	     -1.94834429
      0.13000000	     -0.18377612	     -2.41337424	     -5.47492204	     -1.10505770	      0.93690739	     -0.07147452	     -1.22591790	      2.58911402	      1.60925874	     -4.14231637	      3.70218222	      1.02583316	     -1.14224481	     -6.25369630	    -11.54179392	     -6.94928552	      6.18104162	      7.63291777	     -3.33681586	      0.15465534	     -1.91361569
      0.14000000	     -0.16676172	     -2.40791112	     -5.47868912	     -1.10491460	      0.93692107	     -0.07176910	     -1.26098631	      2.56031653	      1.60147764	     -4.12100783	      3.68680618	      1.03820869	     -1.15480099	     -6.22622425	    -11.53455721	     -6.97552627	      6.19300992	      7.60269765	     -3.31055254	      0.16315166	     -1.88825581
      0.15000000	     -0.15509719	     -2.41245622	     -5.48552613	     -1.10477946	      0.93693075	     -0.07205238	     -1.27753814	      2.54330093	      1.60174769	     -4.12803095	      3.68370233	      1.03965174	     -1.16664184	     -6.21069758	    -11.52923598	     -6.99395563	      6.19280440	      7.60011922	     -3.27976820	      0.18581213	     -1.88526695
      0.16000000	     -0.12110076	     -2.39955273	     -5.49147918	     -1.10461715	      0.93697505	     -0.07233105	     -1.35573193	      2.50260823	      1.61556738	     -4.05708279	      3.62189431	      1.10343301	     -1.18965317	     -6.17593060	    -11.52803420	     -7.03989673	      6.23209934	      7.52291459	     -3.27002997	      0.17967436	     -1.86584151
      0.17000000	     -0.10579573	     -2.40664865	     -5.49408756	     -1.10447291	      0.93699590	     -0.07261518	     -1.38879740	      2.48597033	      1.60728152	     -4.04039720	      3.61834882	      1.11970788	     -1.19838863	     -6.16558229	    -11.51222396	     -7.07212927	      6.23092543	      7.50890931	     -3.24200185	      0.20172406	     -1.83090587
      0.18000000	     -0.08692790	     -2.40882712	     -5.49450670	     -1.10433131	      0.93702200	     -0.07289417	     -1.43054488	      2.46393208	      1.60751268	     -4.01268472	      3.60103074	      1.14294252	     -1.20352624	     -6.15131815	    -11.49388449	     -7.11858497	      6.24351838	      7.49320492	     -3.21840641	      0.21445177	     -1.80676664
      0.19000000	     -0.06320784	     -2.41372241	     -5.48704108	     -1.10419351	      0.93705670	     -0.07317997	     -1.47893824	      2.44471325	      1.61451734	     -3.98313935	      3.57483447	      1.17657076	     -1.20853366	     -6.14036265	    -11.47283406	     -7.17266915	      6.26500051	      7.47263446	     -3.20146822	      0.22851215	     -1.79236750
      0.20000000	     -0.05030457	     -2.42020047	     -5.48978453	     -1.10405119	      0.93707831	     -0.07344893	     -1.49707245	      2.42952378	      1.61644994	     -3.99288710	      3.57172351	      1.17897105	     -1.21957604	     -6.12993981	    -11.46547945	     -7.19355928	      6.26510841	      7.47128650	     -3.17043742	      0.24784055	     -1.78923530
      0.21000000	     -0.01062640	     -2.43246351	     -5.46136896	     -1.10394083	      0.93713004	     -0.07375887	     -1.57248444	      2.41643423	      1.62446349	     -3.94296569	      3.52953800	      1.24560682	     -1.21963400	     -6.12969338	    -11.42451937	     -7.28289502	      6.32495223	      7.43352278	     -3.18190492	      0.26818374	     -1.79055629
      0.22000000	      0.00942252	     -2.44110049	     -5.45612903	     -1.10383478	      0.93715984	     -0.07402576	     -1.59620695	      2.40495331	      1.62321610	     -3.95090243	      3.52689786	      1.25712374	     -1.22519177	     -6.12343861	    -11.39634860	     -7.32515315	      6.32431355	      7.42663000	     -3.16859789	      0.28450031	     -1.75918241
      0.23000000	      0.03574747	     -2.44845587	     -5.43796195	     -1.10374805	      0.93719351	     -0.07429543	     -1.62406456	      2.39294069	      1.62961372	     -3.96471253	      3.52424078	      1.27215777	     -1.22960744	     -6.11731151	    -11.36545776	     -7.37424434	      6.33760515	      7.41716074	     -3.16728469	      0.29576216	     -1.74019261
      0.24000000	      0.06293303	     -2.45519727	     -5.42138260	     -1.10367718	      0.93722674	     -0.07457215	     -1.64825130	      2.38002548	      1.63425626	     -3.98287365	      3.52486043	      1.28571330	     -1.23749044	     -6.10853513	    -11.33729728	     -7.41775490	      6.35540091	      7.40688668	     -3.17219938	      0.31162633	     -1.72898977
      0.25000000	      0.11125734	     -2.46834665	     -5.39045619	     -1.10358798	      0.93727976	     -0.07484693	     -1.69856091	      2.37451333	      1.61245833	     -4.00138672	      3.54174598	      1.32497112	     -1.27374558	     -6.10454178	    -11.31165348	     -7.44932428	      6.40498531	      7.36707478	     -3.20296705	      0.32939535	     -1.73934592
      0.26000000	      0.13154341	     -2.47216454	     -5.37794640	     -1.10355381	      0.93730449	     -0.07509601	     -1.70635605	      2.36203169	      1.62567554	     -4.03131322	      3.53849235	      1.32846618	     -1.28164595	     -6.09233062	    -11.29106113	     -7.47363420	      6.40207671	      7.36094040	     -3.20983323	      0.34200113	     -1.72498902
